<?xml version="1.0" encoding="UTF-8"?>
<svg id="Calque_1" data-name="Calque 1" xmlns="http://www.w3.org/2000/svg" xmlns:xlink="http://www.w3.org/1999/xlink" viewBox="0 0 109 109">
  <defs>
    <style>
      .cls-1 {
        fill: #fff;
      }

      .cls-2 {
        fill: #f6f6f6;
      }

      .cls-3 {
        fill: none;
      }

      .cls-4 {
        fill: url(#Dégradé_sans_nom_23);
      }

      .cls-4, .cls-5 {
        stroke: #ffed00;
        stroke-miterlimit: 10;
      }

      .cls-6 {
        fill: #146d35;
      }

      .cls-7 {
        fill: #fad716;
      }

      .cls-8 {
        fill: url(#Dégradé_sans_nom_28);
      }

      .cls-9 {
        fill: #b7211c;
      }

      .cls-5 {
        fill: url(#Dégradé_sans_nom_16);
      }
    </style>
    <linearGradient id="Dégradé_sans_nom_28" data-name="Dégradé sans nom 28" x1="-11" y1="22.55" x2="120" y2="86.45" gradientUnits="userSpaceOnUse">
      <stop offset="0" stop-color="#e41917"/>
      <stop offset="1" stop-color="#ded38b"/>
    </linearGradient>
    <linearGradient id="Dégradé_sans_nom_16" data-name="Dégradé sans nom 16" x1="53.59" y1="28.52" x2="55.41" y2="80.48" gradientUnits="userSpaceOnUse">
      <stop offset="0" stop-color="#e41917"/>
      <stop offset=".59" stop-color="#e95f32"/>
      <stop offset=".67" stop-color="#e96231"/>
      <stop offset=".73" stop-color="#eb6e30"/>
      <stop offset=".8" stop-color="#ee812f"/>
      <stop offset=".86" stop-color="#f29b2c"/>
      <stop offset=".93" stop-color="#f7be2a"/>
      <stop offset=".99" stop-color="#fde726"/>
      <stop offset="1" stop-color="#ffef26"/>
    </linearGradient>
    <linearGradient id="Dégradé_sans_nom_23" data-name="Dégradé sans nom 23" x1="35.71" y1="54.5" x2="73.29" y2="54.5" gradientUnits="userSpaceOnUse">
      <stop offset="0" stop-color="#f39200"/>
      <stop offset=".02" stop-color="#ed9101"/>
      <stop offset=".7" stop-color="#448e26"/>
      <stop offset="1" stop-color="#008d36"/>
    </linearGradient>
  </defs>
  <rect class="cls-8" width="109" height="109"/>
  <g>
    <circle class="cls-5" cx="54.5" cy="54.5" r="26"/>
    <g>
      <path class="cls-1" d="M33.59,42.69c.3-.56,.73-.7,1.3-.39l-.34,.63c-.14-.08-.25-.04-.32,.1l-.23,.42c-.08,.14-.04,.25,.1,.32l1.48,.79c.14,.08,.25,.04,.32-.1l.23-.42c.08-.14,.04-.25-.1-.32l-.42-.23-.23,.42-.63-.34,.57-1.06,1.06,.57c.56,.3,.7,.73,.39,1.3l-.23,.42c-.3,.56-.73,.7-1.3,.39l-1.48-.79c-.56-.3-.7-.73-.39-1.3l.23-.42Z"/>
      <path class="cls-1" d="M38.24,40.54l-2.06-1.65,.45-.56,2.06,1.65c.5,.4,.55,.85,.15,1.35l-.3,.37c-.4,.5-.85,.55-1.35,.15l-2.06-1.65,.45-.56,2.06,1.65c.12,.1,.24,.09,.34-.04l.3-.37c.1-.12,.09-.24-.04-.34Z"/>
      <path class="cls-1" d="M40.93,39.14l-.53,.49-2.45-2.64,.53-.49,2.45,2.64Z"/>
      <path class="cls-1" d="M41.44,36.27l1.09,1.58-.59,.41-2.04-2.96,.59-.41,1.88,1.03-1.09-1.58,.59-.41,2.04,2.96-.59,.41-1.88-1.03Z"/>
      <path class="cls-1" d="M45.43,35.3l1.31-.59,.3,.66-1.97,.89-1.48-3.28,1.97-.89,.3,.66-1.31,.59,.3,.66,1.09-.49,.3,.66-1.09,.49,.3,.66Zm-1.32-2.83l.08-.82,.72-.33-.08,.82-.72,.33Z"/>
      <path class="cls-1" d="M48.81,34.06l1.4-.35,.18,.7-2.09,.53-.88-3.49,2.09-.53,.18,.7-1.4,.35,.18,.7,1.16-.29,.18,.7-1.16,.29,.18,.7Z"/>
      <path class="cls-1" d="M55.07,30.48c.64,.02,.95,.34,.94,.98l-.72-.02c0-.16-.07-.24-.23-.25h-.48c-.16-.02-.24,.06-.25,.22v.24c-.01,.16,.07,.24,.23,.25h.48c.64,.03,.95,.36,.94,1v.24c-.02,.64-.35,.95-.99,.94h-.48c-.64-.03-.95-.36-.94-1l.72,.02c0,.16,.07,.24,.23,.25h.48c.16,.02,.24-.06,.25-.22v-.24c.01-.16-.07-.24-.23-.25h-.48c-.64-.03-.95-.36-.94-1v-.24c.02-.64,.35-.95,.99-.94h.48Z"/>
      <path class="cls-1" d="M58.1,33.7l1.41,.29-.15,.7-2.11-.44,.73-3.52,2.11,.44-.15,.7-1.41-.29-.15,.7,1.17,.24-.15,.7-1.17-.24-.15,.7Z"/>
      <path class="cls-1" d="M63.31,32.28c.59,.24,.77,.66,.53,1.25l-.09,.22c-.2,.5-.53,.7-.99,.61l.23,1.67-.77-.31-.23-1.65-.16-.07-.54,1.33-.67-.27,1.36-3.33,1.33,.54Zm-.14,.98c.06-.15,.02-.25-.13-.31l-.67-.27-.27,.67,.67,.27c.15,.06,.25,.02,.31-.13l.09-.22Z"/>
      <path class="cls-1" d="M65.6,36.34l1.94-1.76,.62,.4-2.76,2.5-.77-.5,1.14-3.55,.62,.4-.8,2.5Z"/>
      <path class="cls-1" d="M67.61,39.22l-.54-.47,2.37-2.71,.54,.47-2.37,2.71Z"/>
      <path class="cls-1" d="M72.27,38.88c.42,.49,.38,.94-.11,1.35l-.47-.55c.12-.1,.13-.22,.03-.34l-.31-.36c-.1-.12-.22-.13-.34-.03l-1.28,1.09c-.12,.1-.13,.22-.03,.34l.31,.36c.1,.12,.22,.13,.34,.03l.47,.55c-.49,.42-.94,.38-1.35-.11l-.31-.36c-.42-.49-.38-.94,.11-1.35l1.28-1.09c.49-.42,.94-.38,1.35,.11l.31,.36Z"/>
      <path class="cls-1" d="M71.89,43.29l.73,1.24-.62,.36-1.09-1.87,3.11-1.81,1.09,1.87-.62,.36-.73-1.24-.62,.36,.6,1.04-.62,.36-.6-1.04-.62,.36Z"/>
    </g>
    <g>
      <path class="cls-1" d="M42.83,71.11c.45,.45,.45,.91,0,1.36l-.51-.51c.11-.11,.11-.23,0-.34l-.34-.34c-.11-.11-.23-.11-.34,0l-.17,.17c-.11,.11-.11,.23,0,.34l.34,.34c.45,.45,.45,.91,0,1.36l-.17,.17c-.45,.45-.91,.45-1.36,0l-.34-.34c-.45-.45-.45-.91,0-1.36l.51,.51c-.11,.11-.11,.23,0,.34l.34,.34c.11,.11,.23,.11,.34,0l.17-.17c.11-.11,.11-.23,0-.34l-.34-.34c-.45-.45-.45-.91,0-1.36l.17-.17c.45-.45,.91-.45,1.36,0l.34,.34Z"/>
      <path class="cls-1" d="M43.46,75.33l1.21,.79-.39,.6-1.81-1.18,1.96-3.02,1.81,1.18-.39,.6-1.21-.79-.39,.6,1.01,.65-.39,.6-1.01-.65-.39,.6Zm1.67-2.64l.73-.38,.66,.43-.73,.38-.66-.43Z"/>
      <path class="cls-1" d="M48.62,74.76c.6,.23,.78,.64,.55,1.24l-.67-.26c.06-.15,.01-.25-.14-.31l-.45-.17c-.15-.06-.25-.01-.31,.14l-.6,1.57c-.06,.15-.01,.25,.14,.31l.45,.17c.15,.06,.25,.01,.31-.14l.67,.26c-.23,.6-.64,.78-1.24,.55l-.45-.17c-.6-.23-.78-.64-.55-1.24l.6-1.57c.23-.6,.64-.78,1.24-.55l.45,.17Z"/>
      <path class="cls-1" d="M51.92,78.25l.38-2.61,.71,.1-.38,2.61c-.09,.63-.46,.9-1.09,.81l-.47-.07c-.63-.09-.9-.46-.81-1.09l.38-2.61,.71,.1-.38,2.61c-.02,.16,.04,.25,.2,.27l.47,.07c.16,.02,.25-.04,.27-.2Z"/>
      <path class="cls-1" d="M55.62,75.69c.64-.04,.98,.25,1.02,.89l.02,.24c.04,.54-.17,.87-.62,.98l.94,1.4-.83,.06-.93-1.38h-.17s.1,1.45,.1,1.45l-.72,.05-.25-3.59,1.44-.1Zm.31,.94c-.01-.16-.1-.23-.26-.22l-.72,.05,.05,.72,.72-.05c.16-.01,.23-.1,.22-.26l-.02-.24Z"/>
      <path class="cls-1" d="M59.34,78.69l-.7,.17-.86-3.5,.7-.17,.86,3.5Z"/>
      <path class="cls-1" d="M61.28,74.95l1.14,2.65-.66,.28-1.14-2.65-.66,.28-.28-.66,1.98-.85,.28,.66-.66,.28Z"/>
      <path class="cls-1" d="M64.93,75.37l1.18-.83,.41,.59-1.77,1.24-2.06-2.95,1.77-1.24,.41,.59-1.18,.83,.41,.59,.98-.69,.41,.59-.98,.69,.41,.59Zm-1.82-2.53l-.08-.82,.65-.45,.08,.82-.65,.45Z"/>
    </g>
    <circle class="cls-4" cx="54.5" cy="54.5" r="18.79"/>
    <path class="cls-3" d="M73.95,55.32c.05-.54,.05-1.09,0-1.63-.05-.54-.14-1.08-.27-1.62,.1-.03,.2-.05,.3-.08-1.23-9.66-9.48-17.12-19.47-17.12s-18.15,7.38-19.45,16.96c.12,.03,.24,.06,.36,.09-.14,.56-.24,1.14-.29,1.71-.05,.58-.05,1.15,0,1.73,.05,.58,.14,1.15,.29,1.71-.12,.03-.24,.06-.36,.09,1.3,9.58,9.51,16.96,19.45,16.96s18.24-7.46,19.47-17.12c-.1-.03-.2-.05-.3-.08,.14-.53,.23-1.07,.27-1.62Z"/>
    <g>
      <path class="cls-2" d="M45.4,47.54c2.47,0,3.71,1.24,3.71,3.71h-2.78c0-.62-.31-.93-.93-.93h-1.85c-.62,0-.93,.31-.93,.93v6.49c0,.62,.31,.93,.93,.93h1.85c.62,0,.93-.31,.93-.93v-1.85h-1.85v-2.78h4.64v4.64c0,2.47-1.24,3.71-3.71,3.71h-1.85c-2.47,0-3.71-1.24-3.71-3.71v-6.49c0-2.47,1.24-3.71,3.71-3.71h1.85Z"/>
      <path class="cls-2" d="M55.49,47.54c2.47,0,3.71,1.24,3.71,3.71h-2.78c0-.62-.31-.93-.93-.93h-1.85c-.62,0-.93,.31-.93,.93v.93c0,.62,.31,.93,.93,.93h1.85c2.47,0,3.71,1.24,3.71,3.71v.93c0,2.47-1.24,3.71-3.71,3.71h-1.85c-2.47,0-3.71-1.24-3.71-3.71h2.78c0,.62,.31,.93,.93,.93h1.85c.62,0,.93-.31,.93-.93v-.93c0-.62-.31-.93-.93-.93h-1.85c-2.47,0-3.71-1.24-3.71-3.71v-.93c0-2.47,1.24-3.71,3.71-3.71h1.85Z"/>
      <path class="cls-2" d="M65.45,47.54c2.47,0,3.71,1.24,3.71,3.71h-2.78c0-.62-.31-.93-.93-.93h-1.85c-.62,0-.93,.31-.93,.93v.93c0,.62,.31,.93,.93,.93h1.85c2.47,0,3.71,1.24,3.71,3.71v.93c0,2.47-1.24,3.71-3.71,3.71h-1.85c-2.47,0-3.71-1.24-3.71-3.71h2.78c0,.62,.31,.93,.93,.93h1.85c.62,0,.93-.31,.93-.93v-.93c0-.62-.31-.93-.93-.93h-1.85c-2.47,0-3.71-1.24-3.71-3.71v-.93c0-2.47,1.24-3.71,3.71-3.71h1.85Z"/>
    </g>
    <g>
      <path class="cls-9" d="M79.87,53.14c-.06-.92-.18-1.83-.36-2.72-1.94,.5-3.89,1-5.83,1.5,.07,.57,.12,1.14,.14,1.73,2.02-.17,4.03-.34,6.05-.51Z"/>
      <path class="cls-7" d="M79.87,53.14c-2.02,.17-4.03,.34-6.05,.51,.01,.28,.02,.57,.02,.85s0,.57-.02,.85c2.02,.17,4.03,.34,6.05,.51,.03-.45,.05-.9,.05-1.36s-.02-.91-.05-1.36Z"/>
      <path class="cls-6" d="M73.67,57.08c1.94,.5,3.89,1,5.83,1.5,.18-.89,.3-1.79,.36-2.72-2.02-.17-4.03-.34-6.05-.51-.02,.58-.07,1.16-.14,1.73Z"/>
    </g>
    <path class="cls-9" d="M35.41,51.73c-1.98-.51-3.96-1.02-5.94-1.53-.19,.93-.31,1.89-.38,2.86,2.05,.17,4.1,.34,6.16,.52,.03-.63,.08-1.24,.17-1.85Z"/>
    <path class="cls-7" d="M35.23,54.5c0-.31,0-.61,.02-.92-2.05-.17-4.1-.34-6.16-.52-.03,.47-.05,.95-.05,1.43s.02,.96,.05,1.43c2.05-.17,4.1-.34,6.16-.52-.01-.3-.02-.61-.02-.92Z"/>
    <path class="cls-6" d="M29.09,55.93c.06,.97,.19,1.93,.38,2.86,1.98-.51,3.96-1.02,5.94-1.53-.08-.61-.14-1.23-.17-1.85-2.05,.17-4.1,.34-6.16,.52Z"/>
  </g>
</svg>